name ./resultDataOpenSim/trcMotMarkerGrf/sub10/grf-01-03.mot
datacolumns 19
datarows 25
range 0.96400000 1.06000000
endheader

                time	     ground_force_vx	     ground_force_vy	     ground_force_vz	     ground_force_px	     ground_force_py	     ground_force_pz	   l_ground_force_vx	   l_ground_force_vy	   l_ground_force_vz	   l_ground_force_px	   l_ground_force_py	   l_ground_force_pz	     ground_torque_x	     ground_torque_y	     ground_torque_z	   l_ground_torque_x	   l_ground_torque_y	   l_ground_torque_z	
          0.96400000	          0.00000000	          0.00000000	          0.00000000	          0.00000000	          0.00000000	          0.00000000	          0.40417392	        423.38144874	         29.07097372	          0.03621234	          0.00000000	         -0.06267507	          0.00000000	          0.00000000	          0.00000000	          0.00000000	         -3.33814187	          0.00000000	
          0.96800000	          0.00000000	          0.00000000	          0.00000000	          0.00000000	          0.00000000	          0.00000000	          2.02761873	        433.26920467	         30.11040444	          0.03833065	          0.00000000	         -0.06222338	          0.00000000	          0.00000000	          0.00000000	          0.00000000	         -3.54244118	          0.00000000	
          0.97200000	          0.00000000	          0.00000000	          0.00000000	          0.00000000	          0.00000000	          0.00000000	          3.76818786	        444.28174152	         31.16741651	          0.04018751	          0.00000000	         -0.06186085	          0.00000000	          0.00000000	          0.00000000	          0.00000000	         -3.75245554	          0.00000000	
          0.97600000	          0.00000000	          0.00000000	          0.00000000	          0.00000000	          0.00000000	          0.00000000	          5.64494293	        456.23468608	         32.28576050	          0.04175800	          0.00000000	         -0.06164406	          0.00000000	          0.00000000	          0.00000000	          0.00000000	         -3.96284389	          0.00000000	
          0.98000000	          0.00000000	          0.00000000	          0.00000000	          0.00000000	          0.00000000	          0.00000000	          7.66548412	        468.96748383	         33.52172799	          0.04308781	          0.00000000	         -0.06158294	          0.00000000	          0.00000000	          0.00000000	          0.00000000	         -4.16699774	          0.00000000	
          0.98400000	          0.00000000	          0.00000000	          0.00000000	          0.00000000	          0.00000000	          0.00000000	          9.82480396	        482.44097310	         34.91625083	          0.04428113	          0.00000000	         -0.06160934	          0.00000000	          0.00000000	          0.00000000	          0.00000000	         -4.35786080	          0.00000000	
          0.98800000	          0.00000000	          0.00000000	          0.00000000	          0.00000000	          0.00000000	          0.00000000	         12.10947343	        496.70004705	         36.50458128	          0.04543475	          0.00000000	         -0.06164505	          0.00000000	          0.00000000	          0.00000000	          0.00000000	         -4.52868893	          0.00000000	
          0.99200000	          0.00000000	          0.00000000	          0.00000000	          0.00000000	          0.00000000	          0.00000000	         14.49275363	        511.78003017	         38.33999444	          0.04655275	          0.00000000	         -0.06165812	          0.00000000	          0.00000000	          0.00000000	          0.00000000	         -4.67372718	          0.00000000	
          0.99600000	          0.00000000	          0.00000000	          0.00000000	          0.00000000	          0.00000000	          0.00000000	         16.94490827	        527.65107829	         40.48174366	          0.04760189	          0.00000000	         -0.06164715	          0.00000000	          0.00000000	          0.00000000	          0.00000000	         -4.78892814	          0.00000000	
          1.00000000	          0.00000000	          0.00000000	          0.00000000	          0.00000000	          0.00000000	          0.00000000	         19.45595319	        544.19768106	         42.95722129	          0.04856826	          0.00000000	         -0.06162113	          0.00000000	          0.00000000	          0.00000000	          0.00000000	         -4.87277730	          0.00000000	
          1.00400000	          0.00000000	          0.00000000	          0.00000000	          0.00000000	          0.00000000	          0.00000000	         22.03275459	        561.27157123	         45.74321718	          0.04945632	          0.00000000	         -0.06157768	          0.00000000	          0.00000000	          0.00000000	          0.00000000	         -4.92714379	          0.00000000	
          1.00800000	          0.00000000	          0.00000000	          0.00000000	          0.00000000	          0.00000000	          0.00000000	         24.68596258	        578.78153531	         48.76016384	          0.05030397	          0.00000000	         -0.06149279	          0.00000000	          0.00000000	          0.00000000	          0.00000000	         -4.95789260	          0.00000000	
          1.01200000	          0.00000000	          0.00000000	          0.00000000	          0.00000000	          0.00000000	          0.00000000	         27.43496422	        596.69849417	         51.86223270	          0.05112942	          0.00000000	         -0.06134518	          0.00000000	          0.00000000	          0.00000000	          0.00000000	         -4.97485257	          0.00000000	
          1.01600000	          0.00000000	          0.00000000	          0.00000000	          0.00000000	          0.00000000	          0.00000000	         30.31350983	        614.99002993	         54.84807476	          0.05190263	          0.00000000	         -0.06113955	          0.00000000	          0.00000000	          0.00000000	          0.00000000	         -4.99081646	          0.00000000	
          1.02000000	          0.00000000	          0.00000000	          0.00000000	          0.00000000	          0.00000000	          0.00000000	         33.37729119	        633.56146177	         57.51080358	          0.05261422	          0.00000000	         -0.06088583	          0.00000000	          0.00000000	          0.00000000	          0.00000000	         -5.01961083	          0.00000000	
          1.02400000	          0.00000000	          0.00000000	          0.00000000	          0.00000000	          0.00000000	          0.00000000	         36.71783047	        652.22532891	         59.69669563	          0.05331820	          0.00000000	         -0.06058617	          0.00000000	          0.00000000	          0.00000000	          0.00000000	         -5.07371496	          0.00000000	
          1.02800000	          0.00000000	          0.00000000	          0.00000000	          0.00000000	          0.00000000	          0.00000000	         40.44928245	        670.76069317	         61.32582561	          0.05406600	          0.00000000	         -0.06024037	          0.00000000	          0.00000000	          0.00000000	          0.00000000	         -5.16211186	          0.00000000	
          1.03200000	          0.00000000	          0.00000000	          0.00000000	          0.00000000	          0.00000000	          0.00000000	         44.66825895	        689.03949870	         62.38267851	          0.05485855	          0.00000000	         -0.05985539	          0.00000000	          0.00000000	          0.00000000	          0.00000000	         -5.28890350	          0.00000000	
          1.03600000	          0.00000000	          0.00000000	          0.00000000	          0.00000000	          0.00000000	          0.00000000	         49.42327862	        707.04497654	         62.91818932	          0.05567594	          0.00000000	         -0.05943667	          0.00000000	          0.00000000	          0.00000000	          0.00000000	         -5.45294137	          0.00000000	
          1.04000000	          0.00000000	          0.00000000	          0.00000000	          0.00000000	          0.00000000	          0.00000000	         54.70415206	        724.76170023	         63.05484420	          0.05651127	          0.00000000	         -0.05898942	          0.00000000	          0.00000000	          0.00000000	          0.00000000	         -5.64849311	          0.00000000	
          1.04400000	          0.00000000	          0.00000000	          0.00000000	          0.00000000	          0.00000000	          0.00000000	         60.44389087	        742.11993189	         62.95975381	          0.05736419	          0.00000000	         -0.05852391	          0.00000000	          0.00000000	          0.00000000	          0.00000000	         -5.86670097	          0.00000000	
          1.04800000	          0.00000000	          0.00000000	          0.00000000	          0.00000000	          0.00000000	          0.00000000	         66.53566119	        759.05156791	         62.79115527	          0.05820990	          0.00000000	         -0.05805249	          0.00000000	          0.00000000	          0.00000000	          0.00000000	         -6.09732045	          0.00000000	
          1.05200000	          0.00000000	          0.00000000	          0.00000000	          0.00000000	          0.00000000	          0.00000000	         72.87381733	        775.52761682	         62.65802346	          0.05901052	          0.00000000	         -0.05758243	          0.00000000	          0.00000000	          0.00000000	          0.00000000	         -6.33021199	          0.00000000	
          1.05600000	          0.00000000	          0.00000000	          0.00000000	          0.00000000	          0.00000000	          0.00000000	         79.40655235	        791.52185891	         62.61956528	          0.05975462	          0.00000000	         -0.05711834	          0.00000000	          0.00000000	          0.00000000	          0.00000000	         -6.55635212	          0.00000000	
          1.06000000	          0.00000000	          0.00000000	          0.00000000	          0.00000000	          0.00000000	          0.00000000	         86.15527196	        806.97618712	         62.71187679	          0.06045447	          0.00000000	         -0.05666833	          0.00000000	          0.00000000	          0.00000000	          0.00000000	         -6.76845462	          0.00000000	
